<svg id="visual" viewBox="0 0 960 540" width="960" height="540" xmlns="http://www.w3.org/2000/svg" xmlns:xlink="http://www.w3.org/1999/xlink" version="1.1"><rect x="0" y="0" width="960" height="540" fill="#fff"></rect><path d="M0 369L20 376.7C40 384.3 80 399.7 120 412C160 424.3 200 433.7 240 433.7C280 433.7 320 424.3 360 407.3C400 390.3 440 365.7 480 358.2C520 350.7 560 360.3 600 359.3C640 358.3 680 346.7 720 345.5C760 344.3 800 353.7 840 352.3C880 351 920 339 940 333L960 327L960 541L940 541C920 541 880 541 840 541C800 541 760 541 720 541C680 541 640 541 600 541C560 541 520 541 480 541C440 541 400 541 360 541C320 541 280 541 240 541C200 541 160 541 120 541C80 541 40 541 20 541L0 541Z" fill="#f3ba1a"></path><path d="M0 484L20 470.5C40 457 80 430 120 432.3C160 434.7 200 466.3 240 470.2C280 474 320 450 360 441.7C400 433.3 440 440.7 480 437.3C520 434 560 420 600 422.8C640 425.7 680 445.3 720 446.7C760 448 800 431 840 436.2C880 441.3 920 468.7 940 482.3L960 496L960 541L940 541C920 541 880 541 840 541C800 541 760 541 720 541C680 541 640 541 600 541C560 541 520 541 480 541C440 541 400 541 360 541C320 541 280 541 240 541C200 541 160 541 120 541C80 541 40 541 20 541L0 541Z" fill="#1e3a8a"></path></svg>