<svg id="visual" viewBox="0 0 900 600" width="900" height="600" xmlns="http://www.w3.org/2000/svg" xmlns:xlink="http://www.w3.org/1999/xlink" version="1.1"><path d="M0 103L13.7 101C27.3 99 54.7 95 82 90C109.3 85 136.7 79 163.8 70C191 61 218 49 245.2 43C272.3 37 299.7 37 327 45C354.3 53 381.7 69 409 75C436.3 81 463.7 77 491 71C518.3 65 545.7 57 573 54C600.3 51 627.7 53 654.8 56C682 59 709 63 736.2 66C763.3 69 790.7 71 818 69C845.3 67 872.7 61 886.3 58L900 55L900 0L886.3 0C872.7 0 845.3 0 818 0C790.7 0 763.3 0 736.2 0C709 0 682 0 654.8 0C627.7 0 600.3 0 573 0C545.7 0 518.3 0 491 0C463.7 0 436.3 0 409 0C381.7 0 354.3 0 327 0C299.7 0 272.3 0 245.2 0C218 0 191 0 163.8 0C136.7 0 109.3 0 82 0C54.7 0 27.3 0 13.7 0L0 0Z" fill="#4d61aa"></path><path d="M0 217L13.7 235C27.3 253 54.7 289 82 298C109.3 307 136.7 289 163.8 273C191 257 218 243 245.2 231C272.3 219 299.7 209 327 214C354.3 219 381.7 239 409 248C436.3 257 463.7 255 491 265C518.3 275 545.7 297 573 288C600.3 279 627.7 239 654.8 240C682 241 709 283 736.2 282C763.3 281 790.7 237 818 204C845.3 171 872.7 149 886.3 138L900 127L900 53L886.3 56C872.7 59 845.3 65 818 67C790.7 69 763.3 67 736.2 64C709 61 682 57 654.8 54C627.7 51 600.3 49 573 52C545.7 55 518.3 63 491 69C463.7 75 436.3 79 409 73C381.7 67 354.3 51 327 43C299.7 35 272.3 35 245.2 41C218 47 191 59 163.8 68C136.7 77 109.3 83 82 88C54.7 93 27.3 97 13.7 99L0 101Z" fill="#374d9a"></path><path d="M0 301L13.7 315C27.3 329 54.7 357 82 363C109.3 369 136.7 353 163.8 348C191 343 218 349 245.2 342C272.3 335 299.7 315 327 314C354.3 313 381.7 331 409 345C436.3 359 463.7 369 491 373C518.3 377 545.7 375 573 355C600.3 335 627.7 297 654.8 308C682 319 709 379 736.2 376C763.3 373 790.7 307 818 271C845.3 235 872.7 229 886.3 226L900 223L900 125L886.3 136C872.7 147 845.3 169 818 202C790.7 235 763.3 279 736.2 280C709 281 682 239 654.8 238C627.7 237 600.3 277 573 286C545.7 295 518.3 273 491 263C463.7 253 436.3 255 409 246C381.7 237 354.3 217 327 212C299.7 207 272.3 217 245.2 229C218 241 191 255 163.8 271C136.7 287 109.3 305 82 296C54.7 287 27.3 251 13.7 233L0 215Z" fill="#1e3a8a"></path><path d="M0 469L13.7 474C27.3 479 54.7 489 82 496C109.3 503 136.7 507 163.8 507C191 507 218 503 245.2 506C272.3 509 299.7 519 327 518C354.3 517 381.7 505 409 498C436.3 491 463.7 489 491 497C518.3 505 545.7 523 573 522C600.3 521 627.7 501 654.8 503C682 505 709 529 736.2 523C763.3 517 790.7 481 818 463C845.3 445 872.7 445 886.3 445L900 445L900 221L886.3 224C872.7 227 845.3 233 818 269C790.7 305 763.3 371 736.2 374C709 377 682 317 654.8 306C627.7 295 600.3 333 573 353C545.7 373 518.3 375 491 371C463.7 367 436.3 357 409 343C381.7 329 354.3 311 327 312C299.7 313 272.3 333 245.2 340C218 347 191 341 163.8 346C136.7 351 109.3 367 82 361C54.7 355 27.3 327 13.7 313L0 299Z" fill="#173378"></path><path d="M0 601L13.7 601C27.3 601 54.7 601 82 601C109.3 601 136.7 601 163.8 601C191 601 218 601 245.2 601C272.3 601 299.7 601 327 601C354.3 601 381.7 601 409 601C436.3 601 463.7 601 491 601C518.3 601 545.7 601 573 601C600.3 601 627.7 601 654.8 601C682 601 709 601 736.2 601C763.3 601 790.7 601 818 601C845.3 601 872.7 601 886.3 601L900 601L900 443L886.3 443C872.7 443 845.3 443 818 461C790.7 479 763.3 515 736.2 521C709 527 682 503 654.8 501C627.7 499 600.3 519 573 520C545.7 521 518.3 503 491 495C463.7 487 436.3 489 409 496C381.7 503 354.3 515 327 516C299.7 517 272.3 507 245.2 504C218 501 191 505 163.8 505C136.7 505 109.3 501 82 494C54.7 487 27.3 477 13.7 472L0 467Z" fill="#122c66"></path></svg>